# AST/ASF file generated using VICON BodyLanguage
# -----------------------------------------------
:version 1.10
:name VICON
:units
  mass 1.0
  length 0.45
  angle deg
:documentation
   .ast/.asf automatically generated from VICON data using
   VICON BodyBuilder and BodyLanguage model FoxedUp or BRILLIANT.MOD
:root
   order TX TY TZ RX RY RZ
   axis XYZ
   position 0 0 0  
   orientation 0 0 0 
:bonedata
  begin
     id 1 
     name lhipjoint
     direction 0.577973 -0.728611 0.367523 
     length 2.48544 
     axis 0 0 0  XYZ
  end
  begin
     id 2 
     name lfemur
     direction 0.34202 -0.939693 0  
     length 7.1921  
     axis 0 0 20  XYZ
    dof rx ry rz
    limits (-160.0 20.0)
           (-70.0 70.0)
           (-60.0 70.0)
  end
  begin
     id 3 
     name ltibia
     direction 0.34202 -0.939693 0   
     length 7.71059   
     axis 0 0 20   XYZ
    dof rx
    limits (-10.0 170.0)
  end
  begin
     id 4 
     name lfoot
     direction 0.089538 -0.246004 0.965124   
     length 2.19909   
     axis -90 7.62852e-016 20   XYZ
    dof rx rz
    limits (-45.0 90.0)
           (-70.0 20.0)
  end
  begin
     id 5 
     name ltoes
     direction 1.53544e-011 -4.21829e-011 1   
     length 1.10116   
     axis -90 7.62852e-016 20   XYZ
    dof rx
    limits (-90.0 20.0)
  end
  begin
     id 6 
     name rhipjoint
     direction -0.554414 -0.743062 0.374812   
     length 2.4371  
     axis 0 0 0  XYZ 
  end
  begin
     id 7 
     name rfemur
     direction -0.34202 -0.939693 0   
     length 7.47254   
     axis 0 0 -20   XYZ
    dof rx ry rz
    limits (-160.0 20.0)
           (-70.0 70.0)
           (-70.0 60.0)
  end
  begin
     id 8 
     name rtibia
     direction -0.34202 -0.939693 0   
     length 7.65855   
     axis 0 0 -20   XYZ
    dof rx
    limits (-10.0 170.0)
 end
 begin
     id 9 
     name rfoot
     direction -0.133779 -0.367555 0.92033   
     length 2.43006  
     axis -90 -7.62852e-016 -20   XYZ
    dof rx rz
    limits (-45.0 90.0)
           (-20.0 70.0)
  end
  begin
     id 10 
     name rtoes
     direction -1.53563e-011 -4.21889e-011 1   
     length 1.19625   
     axis -90 -7.62852e-016 -20   XYZ
    dof rx
    limits (-90.0 20.0)
  end
  begin
     id 11 
     name lowerback
     direction 0.0249066 0.998043 -0.0573585   
     length 2.08485   
     axis 0 0 0   XYZ
    dof rx ry rz
    limits (-20.0 45.0)
           (-30.0 30.0)
           (-30.0 30.0)
  end
  begin
     id 12 
     name upperback
     direction 0.0237884 0.999673 0.00943178   
     length 2.08515   
     axis 0 0 0   XYZ
    dof rx ry rz
    limits (-20.0 45.0)
           (-30.0 30.0)
           (-30.0 30.0)
  end
  begin
     id 13 
     name thorax
     direction 0.0106671 0.999301 0.0358174   
     length 2.09037   
     axis 0 0 0   XYZ
    dof rx ry rz
    limits (-20.0 45.0)
           (-30.0 30.0)
           (-30.0 30.0)
  end
  begin
     id 14 
     name lowerneck
     direction -0.0580016 0.987052 0.149546   
     length 1.84454   
     axis 0 0 0   XYZ
    dof rx ry rz
    limits (-20.0 45.0)
           (-30.0 30.0)
           (-30.0 30.0)
  end
  begin
     id 15 
     name upperneck
     direction 0.079456 0.981963 -0.171567   
     length 1.88141   
     axis 0 0 0   XYZ
    dof rx ry rz
    limits (-20.0 45.0)
           (-30.0 30.0)
           (-30.0 30.0)
  end
  begin
     id 16
     name head
     direction 0.0262167 0.9967 -0.0768276  
     length 1.89541  
     axis 0 0 0   XYZ
    dof rx ry rz
    limits (-20.0 45.0)
           (-30.0 30.0)
           (-30.0 30.0)
  end
  begin
     id 17 
     name lclavicle
     direction 0.946135 0.322134 -0.0325326  
     length 3.949  
     axis 0 0 0   XYZ
    dof ry rz
    limits (-20.0 10.0)
           (0.0 20.0)
  end
  begin
     id 18 
     name lhumerus
     direction 1 -4.48964e-011 1.94005e-028   
     length 5.10995   
     axis 180 -30 -90   XYZ
    dof rx ry rz
    limits (-60.0 90.0)
           (-90.0 90.0)
           (-90.0 90.0)
  end
  begin
     id 19
     name lradius
     direction 1 -4.48976e-011 2.87852e-027   
     length 3.21207   
     axis 180 -30 -90   XYZ
    dof rx
    limits (-10.0 170.0)
  end
  begin
     id 20
     name lwrist
     direction 1 -4.48963e-011 1.9975e-027   
     length 1.60604   
     axis 2.96054e-016 90 90   XYZ
    dof ry
    limits (-180.0 0.0)
 end
  begin
     id 21 
     name lhand
     direction 1 -4.48919e-011 4.00227e-027   
     length 0.63349   
     axis -2.5488e-015 90 90   XYZ
    dof rx rz
    limits (-90.0 90.0)
           (-45.0 45.0)
  end
  begin
     id 22 
     name lfingers
     direction 1 -4.49037e-011 7.9652e-027   
     length 0.510736   
     axis -5.0975e-015 90 90   XYZ
    dof rx
    limits (0.0 90.0)
  end
  begin
     id 23
     name lthumb
     direction 0.707107 -6.34922e-011 0.707107   
     length 0.733318   
     axis -90 45 -4.48553e-014   XYZ
    dof rx rz
    limits (-45.0 45.0)
           (-45.0 45.0)
  end
  begin
     id 24 
     name rclavicle
     direction -0.940085 0.328911 -0.0897654   
     length 3.93848  
     axis 0 0 0   XYZ 
    dof ry rz
    limits (-10.0 20.0)
           (-20.0 0.0)
  end
  begin
     id 25 
     name rhumerus
     direction -1 -4.48958e-011 3.02044e-027  
     length 5.25109   
     axis 180 30 90   XYZ
    dof rx ry rz
    limits (-90.0 60.0)
           (-90.0 90.0)
           (-90.0 90.0)
  end
  begin
     id 26 
     name rradius
     direction -1 -4.4897e-011 9.78352e-028   
     length 3.28364   
     axis 180 30 90   XYZ
    dof rx
    limits (-10.0 170.0)
  end
  begin
     id 27 
     name rwrist
     direction -1 -4.48943e-011 1.99918e-027   
     length 1.64182   
     axis 2.96054e-016 -90 -90   XYZ
    dof ry
    limits (-180.0 0.0)
  end
  begin
     id 28
     name rhand
     direction -1 -4.49024e-011 3.98478e-027   
     length 0.599745   
     axis -2.5488e-015 -90 -90   XYZ
    dof rx rz
    limits (-90.0 90.0)
           (-45.0 45.0)
  end
  begin
     id 29
     name rfingers
     direction -1 -4.48914e-011 8.00621e-027   
     length 0.48353   
     axis -5.0975e-015 -90 -90   XYZ
    dof rx
    limits (0.0 90.0)
  end
  begin
     id 30
     name rthumb
     direction -0.707107 -6.34992e-011 0.707107   
     length 0.694255   
     axis -90 -45 4.48553e-014   XYZ
    dof rx rz
    limits (-45.0 45.0)
           (-45.0 45.0)
  end
:hierarchy
  begin
    root lhipjoint rhipjoint lowerback
    lhipjoint lfemur
    lfemur ltibia
    ltibia lfoot
    lfoot ltoes
    rhipjoint rfemur
    rfemur rtibia
    rtibia rfoot
    rfoot rtoes
    lowerback upperback
    upperback thorax
    thorax lowerneck lclavicle rclavicle
    lowerneck upperneck
    upperneck head
    lclavicle lhumerus
    lhumerus lradius
    lradius lwrist
    lwrist lhand lthumb
    lhand lfingers
    rclavicle rhumerus
    rhumerus rradius
    rradius rwrist
    rwrist rhand rthumb
    rhand rfingers
  end

#!OML:ASF E:\CV Data\Top Level 1\Subject 1\Session 1\player.ASF
:FULLY-SPECIFIED
:DEGREES
262
root 15.1039 16.0417 -5.29549 -4.77707 -66.8733 8.88504
lowerback 3.12167 0.6639 -7.53343
upperback -3.46347 0.290185 -2.31743
thorax -5.40846 0.363638 1.78148
lowerneck -17.9824 6.86229 -5.86762
upperneck 27.6075 8.44676 10.0937
head 11.1402 4.43344 5.89905
rclavicle 1.38652e-014 -1.59028e-015
rhumerus -30.913 45.4371 -105.106
rradius 107.269
rwrist 11.1658
rhand -46.1415 40.1411
rfingers 7.12502
rthumb -18.8818 11.0375
lclavicle 1.38652e-014 -1.59028e-015
lhumerus -37.9706 -42.3192 113.587
lradius 114.347
lwrist 12.4813
lhand -47.7606 21.7099
lfingers 7.12502
lthumb -20.4384 50.6542
rfemur -48.3481 -10.0999 14.0297
rtibia 51.2137
rfoot -4.75433 -12.647
rtoes 15.7253
lfemur 4.03348 2.8973 -23.1881
ltibia 29.6499
lfoot -29.969 12.3311
ltoes -14.0436
263
root 15.068 16.022 -5.288 -5.3345 -67.4586 9.32142
lowerback 2.96981 0.57977 -7.68886
upperback -3.62116 0.163631 -2.41324
thorax -5.47996 0.308097 1.77709
lowerneck -18.0119 7.06867 -5.78254
upperneck 27.861 8.65815 10.2544
head 11.2145 4.55099 5.98818
rclavicle 1.66482e-014 -1.19271e-014
rhumerus -30.3459 45.7652 -104.828
rradius 107.441
rwrist 11.6316
rhand -46.2564 40.1276
rfingers 7.12502
rthumb -18.9923 11.0349
lclavicle 1.66482e-014 -1.19271e-014
lhumerus -37.8513 -42.6296 113.68
lradius 114.538
lwrist 12.0461
lhand -48.1485 21.9101
lfingers 7.12502
lthumb -20.8111 50.814
rfemur -48.5062 -9.86642 14.0934
rtibia 51.7321
rfoot -5.02337 -12.3563
rtoes 15.6462
lfemur 4.47479 3.11974 -23.3702
ltibia 29.4964
lfoot -29.9493 12.7499
ltoes -14.3587
264
root 15.0291 16.002 -5.28042 -5.89883 -68.035 9.769
lowerback 2.80491 0.478001 -7.8012
upperback -3.78148 0.0157297 -2.52594
thorax -5.54429 0.239578 1.73251
lowerneck -18.0336 7.2854 -5.67297
upperneck 28.1016 8.87561 10.4174
head 11.2831 4.6744 6.07393
rclavicle -4.07509e-015 6.36111e-015
rhumerus -29.7717 46.0568 -104.571
rradius 107.619
rwrist 12.1113
rhand -46.4034 40.1557
rfingers 7.12502
rthumb -19.1336 11.0768
lclavicle -4.07509e-015 6.36111e-015
lhumerus -37.7027 -43.0013 113.649
lradius 114.778
lwrist 11.6944
lhand -48.5424 22.1117
lfingers 7.12502
lthumb -21.1895 50.9737
rfemur -48.6627 -9.64621 14.1648
rtibia 52.2689
rfoot -5.32609 -12.071
rtoes 15.5467
lfemur 4.9145 3.30742 -23.5532
ltibia 29.3466
lfoot -29.9434 13.1433
ltoes -14.5338
265
root 14.9871 15.9814 -5.27277 -6.43553 -68.6053 10.194
lowerback 2.6311 0.357692 -7.90608
upperback -3.95101 -0.155227 -2.61766
thorax -5.61136 0.160156 1.70688
lowerneck -18.0475 7.51125 -5.55498
upperneck 28.34 9.10777 10.5641
head 11.3495 4.80313 6.1538
rclavicle -6.65929e-015 7.95139e-016
rhumerus -29.2174 46.3454 -104.302
rradius 107.808
rwrist 12.6063
rhand -46.5838 40.2117
rfingers 7.12502
rthumb -19.3071 11.1501
lclavicle -6.65929e-015 7.95139e-016
lhumerus -37.5281 -43.3854 113.557
lradius 115.052
lwrist 11.3617
lhand -48.9665 22.39
lfingers 7.12502
lthumb -21.5968 51.2057
rfemur -48.8205 -9.43079 14.2562
rtibia 52.8267
rfoot -5.6712 -11.8001
rtoes 15.4433
lfemur 5.35045 3.485 -23.7176
ltibia 29.204
lfoot -29.9457 13.5367
ltoes -14.697
266
root 14.942 15.9601 -5.26519 -6.94409 -69.1648 10.5973
lowerback 2.44802 0.225555 -8.04217
upperback -4.129 -0.340747 -2.66623
thorax -5.68096 0.0763776 1.74399
lowerneck -18.0391 7.73378 -5.45195
upperneck 28.5674 9.34763 10.6829
head 11.4074 4.93015 6.22468
rclavicle 6.93758e-014 -1.59028e-015
rhumerus -28.6918 46.6234 -103.977
rradius 108.024
rwrist 13.1136
rhand -46.7803 40.2982
rfingers 7.12502
rthumb -19.4961 11.2556
lclavicle 6.93758e-014 -1.59028e-015
lhumerus -37.3413 -43.7596 113.497
lradius 115.325
lwrist 10.9835
lhand -49.3691 22.6578
lfingers 7.12502
lthumb -21.9835 51.4286
rfemur -48.9782 -9.22047 14.3623
rtibia 53.4079
rfoot -6.06771 -11.548
rtoes 15.3414
lfemur 5.7801 3.65856 -23.8611
ltibia 29.0697
lfoot -29.9601 13.9145
ltoes -14.8427
267
root 14.8939 15.9381 -5.25777 -7.41668 -69.7154 10.9724
lowerback 2.25581 0.0793604 -8.19827
upperback -4.31767 -0.543604 -2.67722
thorax -5.75458 -0.0135124 1.83193
lowerneck -18.0064 7.955 -5.36486
upperneck 28.7847 9.59568 10.783
head 11.4562 5.05669 6.28982
rclavicle -3.18055e-015 -3.97569e-015
rhumerus -28.1947 46.8929 -103.616
rradius 108.258
rwrist 13.6241
rhand -46.9676 40.3914
rfingers 7.12502
rthumb -19.6761 11.3672
lclavicle -3.18055e-015 -3.97569e-015
lhumerus -37.171 -44.1107 113.522
lradius 115.576
lwrist 10.5251
lhand -49.7576 23.0244
lfingers 7.12502
lthumb -22.3564 51.7509
rfemur -49.1378 -9.01364 14.4847
rtibia 54.0138
rfoot -6.51844 -11.3142
rtoes 15.2585
lfemur 6.20247 3.80331 -23.9925
ltibia 28.9449
lfoot -29.9752 14.3246
ltoes -14.9987
268
root 14.8429 15.9152 -5.2508 -7.85949 -70.26 11.3175
lowerback 2.06751 -0.0738463 -8.38336
upperback -4.51506 -0.755881 -2.64936
thorax -5.83778 -0.104813 1.97643
lowerneck -17.9494 8.16946 -5.29958
upperneck 28.9922 9.84557 10.8662
head 11.4959 5.17946 6.34993
rclavicle 1.43125e-014 4.77083e-015
rhumerus -27.7301 47.146 -103.206
rradius 108.521
rwrist 14.1197
rhand -47.1434 40.5008
rfingers 7.12502
rthumb -19.8452 11.494
lclavicle 1.43125e-014 4.77083e-015
lhumerus -37.0092 -44.435 113.64
lradius 115.798
lwrist 9.99988
lhand -50.0998 23.3746
lfingers 7.12502
lthumb -22.6848 52.0613
rfemur -49.2912 -8.80791 14.6237
rtibia 54.6438
rfoot -7.02155 -11.0994
rtoes 15.171
lfemur 6.62668 3.92724 -24.1075
ltibia 28.8308
lfoot -29.9917 14.7533
ltoes -15.1494
269
root 14.789 15.8917 -5.2442 -8.26956 -70.8008 11.6237
lowerback 1.88487 -0.23278 -8.57847
upperback -4.71681 -0.975264 -2.59275
thorax -5.92659 -0.197559 2.15636
lowerneck -17.8737 8.37792 -5.25706
upperneck 29.1909 10.0958 10.9431
head 11.5273 5.29909 6.40915
rclavicle 2.67365e-014 -1.59028e-015
rhumerus -27.2833 47.3773 -102.762
rradius 108.8
rwrist 14.579
rhand -47.2909 40.6418
rfingers 7.12502
rthumb -19.987 11.6497
lclavicle 2.67365e-014 -1.59028e-015
lhumerus -36.8563 -44.7283 113.864
lradius 115.967
lwrist 9.39919
lhand -50.3998 23.6367
lfingers 7.12502
lthumb -22.9727 52.2878
rfemur -49.4313 -8.6033 14.7809
rtibia 55.2948
rfoot -7.57404 -10.891
rtoes 15.0695
lfemur 7.05645 4.03238 -24.2012
ltibia 28.7284
lfoot -30.0157 15.172
ltoes -15.2426
270
root 14.7324 15.868 -5.23834 -8.64055 -71.3401 11.8806
lowerback 1.71393 -0.393419 -8.74531
upperback -4.9202 -1.19696 -2.53654
thorax -6.02237 -0.292067 2.31991
lowerneck -17.7967 8.58208 -5.20375
upperneck 29.387 10.3357 11.023
head 11.559 5.41546 6.46624
rclavicle -1.68967e-015 -3.97569e-014
rhumerus -26.843 47.5633 -102.312
rradius 109.09
rwrist 15.0147
rhand -47.4298 40.7928
rfingers 7.12502
rthumb -20.1205 11.8147
lclavicle -1.68967e-015 -3.97569e-014
lhumerus -36.6729 -45.0544 114.046
lradius 116.135
lwrist 8.84434
lhand -50.6329 23.7799
lfingers 7.12502
lthumb -23.1964 52.403
rfemur -49.553 -8.39868 14.9611
rtibia 55.9598
rfoot -8.16445 -10.6764
rtoes 14.9576
lfemur 7.49357 4.09768 -24.2773
ltibia 28.6442
lfoot -30.044 15.5888
ltoes -15.2874
271
root 14.6728 15.8438 -5.233 -9.00579 -71.8781 12.117
lowerback 1.55402 -0.555181 -8.88132
upperback -5.12122 -1.42037 -2.48876
thorax -6.12098 -0.388762 2.45733
lowerneck -17.7248 8.78381 -5.14566
upperneck 29.5832 10.5674 11.1146
head 11.5922 5.53013 6.52637
rclavicle -2.64384e-014 -1.66979e-014
rhumerus -26.4094 47.7057 -101.862
rradius 109.392
rwrist 15.4265
rhand -47.5783 40.9708
rfingers 7.12502
rthumb -20.2631 12.0078
lclavicle -2.64384e-014 -1.66979e-014
lhumerus -36.448 -45.4118 114.159
lradius 116.304
lwrist 8.33869
lhand -50.8187 23.7906
lfingers 7.12502
lthumb -23.3747 52.3912
rfemur -49.6513 -8.19676 15.1534
rtibia 56.6356
rfoot -8.77537 -10.4453
rtoes 14.8238
lfemur 7.94752 4.14053 -24.3437
ltibia 28.5786
lfoot -30.0674 16.0127
ltoes -15.3921
272
root 14.6104 15.8202 -5.22822 -9.35013 -72.4149 12.3155
lowerback 1.40543 -0.716264 -8.96237
upperback -5.31709 -1.64274 -2.46289
thorax -6.22086 -0.488213 2.54102
lowerneck -17.6626 8.98408 -5.06664
upperneck 29.7788 10.7869 11.2192
head 11.629 5.64325 6.58743
rclavicle -2.03754e-014 -2.06736e-014
rhumerus -25.975 47.7903 -101.435
rradius 109.695
rwrist 15.8483
rhand -47.7498 41.1188
rfingers 7.12502
rthumb -20.428 12.1733
lclavicle -2.03754e-014 -2.06736e-014
lhumerus -36.1971 -45.8146 114.201
lradius 116.472
lwrist 7.8927
lhand -51.0167 23.6399
lfingers 7.12502
lthumb -23.5646 52.2163
rfemur -49.7187 -7.99636 15.3634
rtibia 57.3145
rfoot -9.3958 -10.1865
rtoes 14.6827
lfemur 8.4165 4.15459 -24.3915
ltibia 28.5311
lfoot -30.1114 16.3633
ltoes -15.3714
273
root 14.5447 15.7962 -5.22409 -9.71312 -72.9519 12.5152
lowerback 1.26454 -0.874362 -9.03696
upperback -5.50434 -1.86115 -2.43738
thorax -6.31598 -0.586252 2.6202
lowerneck -17.6161 9.1798 -4.98032
upperneck 29.9782 10.9989 11.3221
head 11.672 5.75344 6.64767
rclavicle 1.35174e-014 3.97569e-015
rhumerus -25.543 47.8351 -100.988
rradius 110.009
rwrist 16.282
rhand -47.953 41.2216
rfingers 7.12502
rthumb -20.6232 12.2972
lclavicle 1.35174e-014 3.97569e-015
lhumerus -35.9161 -46.2418 114.219
lradius 116.623
lwrist 7.43861
lhand -51.2122 23.413
lfingers 7.12502
lthumb -23.7522 51.9651
rfemur -49.7577 -7.79295 15.5771
rtibia 57.9937
rfoot -10.007 -9.89102
rtoes 14.5539
lfemur 8.90932 4.18111 -24.4242
ltibia 28.5022
lfoot -30.1397 16.6921
ltoes -15.4968
274
root 14.4759 15.7719 -5.22092 -10.1094 -73.4904 12.7296
lowerback 1.13088 -1.02474 -9.13542
upperback -5.68042 -2.06896 -2.39435
thorax -6.40302 -0.677534 2.72997
lowerneck -17.5911 9.3659 -4.92051
upperneck 30.1888 11.2032 11.4359
head 11.7217 5.85853 6.71806
rclavicle -4.09496e-014 2.78299e-014
rhumerus -25.1076 47.8361 -100.485
rradius 110.343
rwrist 16.7279
rhand -48.1137 41.2359
rfingers 7.12502
rthumb -20.7776 12.3283
lclavicle -4.09496e-014 2.78299e-014
lhumerus -35.5942 -46.6869 114.23
lradius 116.751
lwrist 6.9442
lhand -51.4261 23.0652
lfingers 7.12502
lthumb -23.9573 51.5905
rfemur -49.7646 -7.58101 15.789
rtibia 58.6655
rfoot -10.6018 -9.55963
rtoes 14.4872
lfemur 9.4269 4.24367 -24.4364
ltibia 28.4947
lfoot -30.1293 17.0189
ltoes -15.8823
275
root 14.4038 15.7482 -5.21837 -10.4928 -74.0332 12.9157
lowerback 0.995584 -1.16871 -9.23283
upperback -5.84711 -2.26636 -2.34208
thorax -6.47915 -0.763798 2.84775
lowerneck -17.5654 9.54233 -4.85318
upperneck 30.3887 11.397 11.5327
head 11.7703 5.95757 6.77915
rclavicle -2.44505e-014 -7.15625e-015
rhumerus -24.6757 47.7943 -99.9605
rradius 110.683
rwrist 17.1716
rhand -48.2688 41.248
rfingers 7.12502
rthumb -20.9267 12.3568
lclavicle -2.44505e-014 -7.15625e-015
lhumerus -35.2437 -47.1419 114.234
lradius 116.854
lwrist 6.36073
lhand -51.6209 22.7692
lfingers 7.12502
lthumb -24.1441 51.2698
rfemur -49.7363 -7.35346 16.0132
rtibia 59.32
rfoot -11.1716 -9.20646
rtoes 14.4708
lfemur 9.96148 4.33482 -24.4128
ltibia 28.5058
lfoot -30.0787 17.2889
ltoes -16.3981
276
root 14.3281 15.7253 -5.21648 -10.8783 -74.5796 13.0891
lowerback 0.855648 -1.31056 -9.32537
upperback -6.00479 -2.4586 -2.28126
thorax -6.54243 -0.847971 2.97085
lowerneck -17.4984 9.70532 -4.81403
upperneck 30.5295 11.584 11.6201
head 11.7866 6.05119 6.83138
rclavicle 1.03368e-014 -3.49861e-014
rhumerus -24.2572 47.7238 -99.4177
rradius 111.041
rwrist 17.561
rhand -48.3678 41.3209
rfingers 7.12502
rthumb -21.0217 12.4402
lclavicle 1.03368e-014 -3.49861e-014
lhumerus -34.8919 -47.5878 114.252
lradius 116.93
lwrist 5.64798
lhand -51.7288 22.5454
lfingers 7.12502
lthumb -24.2475 51.0323
rfemur -49.6665 -7.11463 16.2474
rtibia 59.946
rfoot -11.7104 -8.84919
rtoes 14.493
lfemur 10.5094 4.44264 -24.3626
ltibia 28.5443
lfoot -29.9636 17.5205
ltoes -17.1053
